# xmcd
#
# Track frame offsets: 
#        150
#        17202
#        36670
#        55300
#        77600
#        101102
#        124625
#        145732
#        163845
#        186305
#
# Disc length: 2770 seconds
#
# Revision: 3
# Processed by: cddbd v1.5.1PL2 Copyright (c) Steve Scherf et al.
# Submitted via: ExactAudioCopy v0.95b2
#
DISCID=8c0ad00a
DTITLE=Kate Cebrano - Think_About_It
DYEAR=1991
DGENRE=Pop
TTITLE0=Every Little Thing
TTITLE1=Think About It
TTITLE2=See Right Through
TTITLE3=Satisfied
TTITLE4=The Message
TTITLE5=What Am I Gonna Do
TTITLE6=Call Me Yours
TTITLE7=So Fine
TTITLE8=Meaning Of Life
TTITLE9=Everything Will Be Alright
EXTD=YEAR: 1991
EXTT0=
EXTT1=
EXTT2=
EXTT3=
EXTT4=
EXTT5=
EXTT6=
EXTT7=
EXTT8=
EXTT9=
PLAYORDER=
